<?xml version="1.0" encoding="iso-8859-1"?>
<!-- Uploaded to: SVG Repo, www.svgrepo.com, Generator: SVG Repo Mixer Tools -->
<!DOCTYPE svg PUBLIC "-//W3C//DTD SVG 1.1//EN" "http://www.w3.org/Graphics/SVG/1.1/DTD/svg11.dtd">
<svg fill="#000000" height="800px" width="800px" version="1.1" id="Capa_1" xmlns="http://www.w3.org/2000/svg" xmlns:xlink="http://www.w3.org/1999/xlink" 
	 viewBox="0 0 395 395" xml:space="preserve">
<g>
	<path d="M116.443,130.158c18.596,0,33.677-15.069,33.677-33.664c0-18.595-15.081-33.671-33.677-33.671
		c-18.59,0-33.672,15.077-33.672,33.671C82.771,115.089,97.853,130.158,116.443,130.158z"/>
	<path d="M162.725,228.524c0.269,0,0.539-0.01,0.811-0.031c5.883-0.442,10.294-5.569,9.852-11.453
		c-2.679-35.668-6.98-54.159-15.34-65.95c-10.761-15.179-27.117-16.451-41.604-16.451c-14.487,0-30.844,1.271-41.604,16.451
		c-8.358,11.791-12.659,30.281-15.34,65.95c-0.442,5.883,3.968,11.011,9.851,11.453c5.894,0.445,11.011-3.969,11.453-9.852
		c1.696-22.561,4.1-37.767,7.569-47.344c-0.268,1.57-0.416,3.182-0.416,4.829v41.096c0,2.232,0.265,4.401,0.751,6.485v90.163
		c0,6.883,5.58,12.463,12.463,12.463s12.463-5.58,12.463-12.463V245.57c0.925,0.09,1.862,0.139,2.811,0.139
		c0.946,0,1.881-0.049,2.804-0.139v68.3c0,6.883,5.58,12.463,12.463,12.463s12.463-5.58,12.463-12.463v-90.134
		c0.49-2.093,0.757-4.272,0.757-6.515v-41.096c0-1.647-0.147-3.26-0.416-4.831c3.469,9.578,5.873,24.784,7.568,47.345
		C152.505,224.252,157.188,228.524,162.725,228.524z"/>
	<path d="M313.001,0H81.999C36.785,0,0,36.784,0,81.998v230.993C0,358.211,36.785,395,81.999,395h231.002
		C358.216,395,395,358.211,395,312.991V81.998C395,36.784,358.216,0,313.001,0z M380,312.991C380,349.94,349.945,380,313.001,380
		H81.999C45.056,380,15,349.94,15,312.991V81.998C15,45.055,45.056,15,81.999,15h231.002C349.945,15,380,45.055,380,81.998V312.991z
		"/>
	<path d="M326.038,82.759h-44.61c-3.906,0-7.074,3.167-7.074,7.073c0,3.906,3.167,7.073,7.074,7.073h34.001v8.016h-34.001
		c-3.906,0-7.074,3.167-7.074,7.073c0,3.907,3.167,7.074,7.074,7.074h34.001v7.073h-34.001c-3.906,0-7.074,3.167-7.074,7.073
		c0,3.907,3.167,7.074,7.074,7.074h34.001v7.073h-34.001c-3.906,0-7.074,3.167-7.074,7.073c0,3.907,3.167,7.074,7.074,7.074h34.001
		v7.073h-34.001c-3.906,0-7.074,3.167-7.074,7.073c0,3.906,3.167,7.073,7.074,7.073h34.001v7.073h-34.001
		c-3.906,0-7.074,3.167-7.074,7.073c0,3.906,3.167,7.073,7.074,7.073h34.001v8.252h-34.001c-3.906,0-7.074,3.167-7.074,7.073
		c0,3.906,3.167,7.073,7.074,7.073h34.001v77.276v15.064c0,3.907,3.166,7.074,7.073,7.074h10.61c3.906,0,7.073-3.167,7.073-7.074
		v-15.064V96.905C340.184,89.105,333.838,82.759,326.038,82.759z"/>
	<path d="M291.564,278.81c-2.741-14.1-15.502-24.598-29.858-24.598c-5.102,0-10.168,1.3-14.637,3.764v-83.461l-17.586-88.454
		c-0.463-2.325-2.732-3.538-4.919-2.709c-1.38,0.522-1.913,1.839-2.174,3.152l-17.498,88.138v73.514c0,3.273,0,6.547,0,9.82
		c-8.332-4.594-18.599-4.981-27.247-1.026c-7.375,3.373-13.227,9.705-15.994,17.33c-2.861,7.886-2.287,16.816,1.565,24.268
		c3.728,7.208,10.333,12.758,18.091,15.15c8.025,2.475,16.916,1.465,24.176-2.755c7.044-4.095,12.273-10.997,14.261-18.903
		c0.974-3.872,0.995-7.693,0.995-11.634v-39.437l10.479,0.035v42.745c0,24.248,15.027,35.145,19.986,40.061
		c3.073,3.048,6.407,5.832,9.951,8.317c1.945,1.365,3.954,2.64,6.015,3.823c2.148,1.233,4.465,2.781,6.994,2.974
		c6.419,0.489,10.876-6.653,7.652-12.204c-1.682-2.896-5.061-3.961-7.79-5.611c-3.055-1.846-5.953-3.952-8.643-6.299
		c8.246-0.999,15.846-5.464,20.785-12.134C291.202,295.877,293.178,287.115,291.564,278.81z M204.218,286.893
		c-1.092,6.756-7.122,11.879-13.963,11.879c-8.584,0-15.335-7.94-13.964-16.413c1.366-8.443,10.258-13.85,18.384-11.171
		C201.2,273.339,205.315,280.11,204.218,286.893z M275.671,286.893c-1.093,6.757-7.124,11.879-13.965,11.879
		c-8.583,0-15.332-7.942-13.962-16.413c1.366-8.443,10.256-13.85,18.382-11.171C272.652,273.339,276.769,280.11,275.671,286.893z"/>
</g>
</svg>