<?xml version="1.0" encoding="iso-8859-1"?>
<!-- Uploaded to: SVG Repo, www.svgrepo.com, Generator: SVG Repo Mixer Tools -->
<svg fill="#000000" height="800px" width="800px" version="1.1" id="Layer_1" xmlns="http://www.w3.org/2000/svg" xmlns:xlink="http://www.w3.org/1999/xlink" 
	 viewBox="0 0 247.079 247.079" xml:space="preserve">
<g>
	<g>
		<g>
			<path d="M210.782,22.703c-12.48,0-82.556,14.06-85.548,14.664c-1.984,0.416-3.696,1.096-5.284,1.888l-14.196-6.852
				c-3.524-2.104-6.336-1.372-8.08-0.392c-5,2.836-7.616,11.604-7.616,18.804v17.956c0,6.348,2.636,14.508,7.676,17.82
				c1.428,0.94,2.94,1.416,4.492,1.416c1.112,0,2.244-0.244,3.376-0.736l12.876-6.224c1.904,1.172,4.148,2.092,6.776,2.688
				c2.432,0.488,49.692,9.972,73.688,13.416c0.508,4.052,0.328,7.412-1.088,8.808c-10.724,10.596-9.18,36.792-9.112,37.856
				c0.152,3.648,0.4,7.54,1.968,10.684l-2.544,7.096l-0.052,0.784l0.24,0.796c0.8,1.412,3.64,2.74,5.492,3.488
				c0.32,1.072,0.652,2.152,1.024,3.312c3.104,9.64,6.628,20.564-4.448,29.1c-7.364,5.684-19.04-1.22-30.332-7.892
				c-9.748-5.76-18.948-11.2-26.408-9.46c-8.316,1.94-13.488,7.28-16.388,13.288c-5.056-4.86-12.888-6.044-19.212-2.312
				l-6.872,4.052l3.308,5.612l-7.672,4.524c-0.9,0.528-1.54,1.38-1.804,2.396c-0.26,1.016-0.112,2.068,0.416,2.968
				c0.732,1.236,2.04,1.924,3.384,1.924c0.672,0,1.36-0.172,1.984-0.54l7.672-4.524l1.712,2.904l-7.672,4.524
				c-1.86,1.1-2.48,3.504-1.384,5.364c0.528,0.9,1.38,1.54,2.396,1.8c0.328,0.084,0.66,0.128,0.988,0.128
				c0.692,0,1.372-0.184,1.98-0.544l7.672-4.524l3.308,5.612l6.872-4.052c7.572-4.464,10.116-14.228,5.728-21.828
				c2.244-5.752,6.78-11.08,14.5-12.88c5.9-1.372,14.824,3.904,23.46,9.008c8.864,5.236,17.94,10.6,25.864,10.6
				c3.196,0,6.212-0.876,8.944-2.984c13.304-10.256,8.976-23.688,5.816-33.5c-0.068-0.212-0.12-0.396-0.188-0.608
				c1.02,0.24,2.088,0.436,3,0.436c0.528,0,1.004-0.06,1.38-0.208l0.372-0.212l0.772-0.888l2.788-7.792
				c2.824-1.304,5.26-3.608,6.728-6.824l24.984-63.912c0.632-1.616,0.86-3.276,0.816-4.908c4.832-6.428,7.744-14.504,7.744-23.284
				C247.079,39.679,230.795,22.703,210.782,22.703z M116.587,77.551l-12.64,6.108c-1.4,0.6-2.72,0.48-4.036-0.388
				c-3.3-2.168-5.888-8.54-5.888-14.5V50.815c0-6.712,2.516-13.596,5.604-15.352c0.388-0.22,0.9-0.44,1.592-0.44
				c0.688,0,1.552,0.22,2.652,0.872l6.54,3.16l0.28,32.472l2.268-0.02l-0.268-31.352l3.896,1.88V77.551z M89.382,211.191
				c-0.512,0.296-1.18,0.132-1.484-0.384c-0.144-0.248-0.184-0.54-0.112-0.82c0.072-0.28,0.248-0.516,0.496-0.664l7.288-4.296
				c0.352,0.56,0.776,1.284,1.1,1.864L89.382,211.191z M95.074,220.843c-0.248,0.144-0.54,0.184-0.82,0.112
				c-0.28-0.072-0.516-0.248-0.664-0.496c-0.304-0.512-0.132-1.18,0.384-1.484l7.288-4.296c0.352,0.564,0.78,1.284,1.1,1.864
				L95.074,220.843z M112.639,217.395l-3.944,2.324l-12.832-21.764l3.944-2.324c6-3.536,13.756-1.536,17.3,4.468
				C120.642,206.095,118.639,213.855,112.639,217.395z M199.131,110.547h8.46c2.528,0,4.584,2.056,4.584,4.584
				s-2.056,4.584-4.584,4.584h-12.636C195.918,116.275,197.251,113.059,199.131,110.547z M201.554,165.747
				c-0.684-0.124-2.12-0.268-4.06-0.824c-0.02-0.072-0.048-0.152-0.068-0.224l-0.344,0.096c-0.336-0.104-0.648-0.184-1.008-0.312
				c-2.7-0.968-4.428-1.984-5.04-2.496l2.88-8.044c0.84,0.06,2.696,0.408,5.432,1.384c2.736,0.98,4.392,1.888,5.08,2.376
				L201.554,165.747z M209.886,151.103c-0.868,1.896-2.224,3.344-3.804,4.308c-1.036-0.768-2.8-1.688-5.78-2.752
				c-1.484-0.532-4.664-1.564-6.696-1.524c-0.576-1.976-0.78-4.456-0.908-7.532c-0.012-0.168-0.66-11.38,1.676-21.624h13.216
				c3.78,0,6.852-3.076,6.852-6.852s-3.076-6.852-6.852-6.852h-6.62c1.992-2.384,2.396-6.304,2.004-10.58
				c3.424,0.436,6.136,0.692,7.804,0.692c8.768,0,16.82-3.26,23.1-8.676L209.886,151.103z M210.782,94.419
				c-12.088,0-84.024-14.432-84.704-14.572c-1.84-0.416-3.792-1.104-5.524-2.148V43.355c1.852-1.12,3.876-1.768,5.476-2.1
				c0.728-0.148,72.664-14.58,84.752-14.58c17.828,0,32.332,15.196,32.332,33.872C243.11,79.227,228.606,94.419,210.782,94.419z"/>
			<path d="M201.967,52.571c0-1.028-0.4-1.988-1.12-2.712c-1.448-1.444-3.98-1.444-5.416,0l-13.916,13.916
				c-0.72,0.72-1.116,1.684-1.116,2.708s0.396,1.988,1.116,2.712c0.748,0.748,1.728,1.12,2.708,1.12c0.984,0,1.964-0.372,2.712-1.12
				l13.912-13.916C201.571,54.555,201.967,53.595,201.967,52.571z M199.243,53.675l-13.916,13.916c-0.604,0.608-1.596,0.608-2.212,0
				c-0.292-0.292-0.452-0.684-0.452-1.104c0-0.42,0.16-0.812,0.452-1.104l13.916-13.916c0.608-0.608,1.6-0.608,2.212,0
				c0.292,0.292,0.456,0.684,0.456,1.104C199.699,52.987,199.538,53.379,199.243,53.675z"/>
			<path d="M216.214,49.859c-1.5-1.496-3.928-1.492-5.42,0l-13.916,13.916c-0.72,0.72-1.116,1.684-1.116,2.708
				s0.396,1.988,1.116,2.712c0.748,0.748,1.728,1.12,2.712,1.12c0.98,0,1.96-0.372,2.708-1.12l13.916-13.916
				C217.706,53.783,217.706,51.351,216.214,49.859z M214.61,53.671l-13.916,13.916c-0.588,0.584-1.624,0.584-2.212,0
				c-0.292-0.296-0.452-0.688-0.452-1.108c0-0.42,0.16-0.812,0.452-1.104l13.916-13.916c0.308-0.304,0.708-0.456,1.108-0.456
				c0.404,0,0.804,0.152,1.108,0.456c0.292,0.296,0.452,0.688,0.452,1.108C215.063,52.987,214.902,53.379,214.61,53.671z"/>
			<path d="M226.158,49.859l-13.916,13.916c-0.72,0.72-1.116,1.684-1.116,2.708s0.396,1.988,1.116,2.712
				c0.724,0.72,1.684,1.116,2.712,1.116s1.988-0.396,2.712-1.12l13.916-13.916c1.492-1.492,1.492-3.924,0-5.416
				C230.082,48.367,227.65,48.363,226.158,49.859z M229.97,53.675l-13.916,13.916c-0.584,0.584-1.624,0.584-2.212,0
				c-0.292-0.296-0.452-0.688-0.452-1.108s0.16-0.812,0.452-1.104l13.916-13.916c0.292-0.292,0.684-0.452,1.104-0.452
				c0.42,0,0.812,0.16,1.108,0.452c0.292,0.296,0.452,0.688,0.452,1.108C230.426,52.987,230.266,53.379,229.97,53.675z"/>
			<path d="M201.251,140.807c-2.548,0-4.624,2.076-4.624,4.624c0,2.548,2.076,4.624,4.624,4.624c2.548,0,4.624-2.076,4.624-4.624
				C205.874,142.883,203.798,140.807,201.251,140.807z M201.251,147.783c-1.3,0-2.352-1.056-2.352-2.352
				c0-1.296,1.056-2.352,2.352-2.352c1.296,0,2.356,1.056,2.356,2.352C203.606,146.727,202.546,147.783,201.251,147.783z"/>
			<path d="M32.79,67.527c0.44-0.684,0.588-1.5,0.416-2.3c-0.172-0.796-0.644-1.48-1.328-1.92c-0.684-0.44-1.5-0.592-2.3-0.42
				c-1.64,0.356-2.692,1.98-2.34,3.628c0.312,1.428,1.58,2.408,2.984,2.408c0.212,0,0.424-0.024,0.64-0.068
				C31.662,68.683,32.346,68.215,32.79,67.527z M30.415,66.767c-0.24,0.048-0.488,0.004-0.688-0.124
				c-0.2-0.132-0.348-0.34-0.4-0.576s-0.004-0.488,0.128-0.692c0.132-0.204,0.34-0.348,0.576-0.4
				c0.516-0.108,0.98,0.208,1.092,0.708C31.227,66.175,30.91,66.663,30.415,66.767z"/>
			<path d="M41.35,66.531c0.212,0,0.424-0.024,0.64-0.068c1.644-0.356,2.692-1.98,2.34-3.624c-0.172-0.8-0.644-1.484-1.328-1.924
				c-0.688-0.444-1.512-0.584-2.296-0.42c-0.8,0.172-1.48,0.644-1.924,1.328c-0.444,0.684-0.592,1.5-0.42,2.3
				C38.67,65.551,39.938,66.531,41.35,66.531z M41.154,62.579c0.5-0.104,0.976,0.212,1.084,0.708c0.104,0.496-0.212,0.98-0.7,1.084
				c-0.24,0.052-0.492,0.004-0.692-0.128c-0.2-0.128-0.344-0.34-0.4-0.576C40.342,63.179,40.654,62.691,41.154,62.579z"/>
			<path d="M36.363,84.127c0.44-0.684,0.588-1.5,0.416-2.3c-0.172-0.796-0.644-1.48-1.328-1.92c-0.684-0.444-1.5-0.588-2.3-0.42
				c-1.64,0.356-2.692,1.98-2.34,3.628c0.312,1.428,1.58,2.408,2.98,2.408c0.212,0,0.428-0.024,0.644-0.068
				C35.234,85.283,35.918,84.811,36.363,84.127z M33.986,83.367c-0.24,0.044-0.488,0-0.688-0.128c-0.2-0.132-0.348-0.34-0.4-0.576
				c-0.052-0.236-0.004-0.488,0.128-0.692c0.132-0.204,0.34-0.348,0.576-0.4c0.472-0.104,0.98,0.204,1.092,0.708
				C34.798,82.771,34.483,83.259,33.986,83.367z"/>
			<path d="M42.355,78.419c-0.444,0.684-0.592,1.5-0.42,2.3c0.308,1.428,1.58,2.408,2.988,2.408c0.212,0,0.424-0.024,0.64-0.068
				c1.644-0.356,2.692-1.98,2.34-3.624c-0.172-0.8-0.644-1.484-1.328-1.924c-0.688-0.444-1.508-0.588-2.296-0.42
				C43.478,77.263,42.798,77.735,42.355,78.419z M44.73,79.175c0.5-0.108,0.976,0.216,1.084,0.712c0.104,0.496-0.212,0.98-0.7,1.084
				c-0.236,0.048-0.488,0.004-0.692-0.128c-0.2-0.128-0.344-0.34-0.4-0.576C43.915,79.771,44.23,79.283,44.73,79.175z"/>
			<path d="M40.579,99.471c-0.172-0.8-0.644-1.484-1.328-1.924c-0.688-0.444-1.504-0.588-2.292-0.42
				c-0.8,0.168-1.484,0.644-1.928,1.328c-0.44,0.684-0.592,1.5-0.42,2.3c0.312,1.428,1.58,2.408,2.988,2.408
				c0.212,0,0.424-0.024,0.64-0.068C39.882,102.739,40.931,101.115,40.579,99.471z M37.79,101.007
				c-0.24,0.048-0.492,0.004-0.692-0.128c-0.2-0.128-0.344-0.34-0.4-0.576c-0.108-0.496,0.208-0.984,0.708-1.092
				c0.5-0.104,0.976,0.208,1.084,0.708c0.048,0.236,0.004,0.484-0.124,0.688C38.234,100.811,38.022,100.955,37.79,101.007z"/>
			<path d="M51.278,99.375c0.44-0.684,0.588-1.5,0.42-2.296c-0.172-0.8-0.644-1.48-1.328-1.924c-0.68-0.444-1.492-0.592-2.3-0.42
				c-1.644,0.356-2.692,1.984-2.34,3.628c0.312,1.428,1.58,2.408,2.98,2.408c0.212,0,0.428-0.024,0.644-0.068
				C50.15,100.531,50.834,100.059,51.278,99.375z M48.902,98.615c-0.48,0.1-0.976-0.208-1.084-0.7
				c-0.052-0.236-0.004-0.488,0.128-0.692s0.34-0.348,0.576-0.4c0.484-0.112,0.98,0.204,1.092,0.708
				C49.714,98.019,49.402,98.503,48.902,98.615z"/>
			<path d="M44.266,116.591v-0.008c-0.36-1.648-2.008-2.68-3.624-2.34c-0.8,0.172-1.484,0.644-1.924,1.328
				c-0.44,0.688-0.588,1.504-0.42,2.292c0.168,0.8,0.644,1.484,1.328,1.928c0.5,0.324,1.068,0.492,1.648,0.492
				c0.216,0,0.436-0.024,0.652-0.072C43.562,119.859,44.614,118.235,44.266,116.591z M41.47,118.127
				c-0.488,0.1-0.984-0.208-1.088-0.7l1.792-0.392l-1.792,0.38c-0.104-0.492,0.212-0.976,0.7-1.084
				c0.064-0.012,0.128-0.02,0.192-0.02c0.176,0,0.352,0.048,0.5,0.148c0.204,0.132,0.352,0.344,0.4,0.576
				c0.052,0.236,0.004,0.488-0.128,0.692S41.707,118.075,41.47,118.127z"/>
			<path d="M55.382,114.191c-0.172-0.796-0.644-1.476-1.328-1.916c-0.684-0.444-1.5-0.588-2.296-0.42
				c-0.8,0.172-1.484,0.644-1.924,1.328c-0.44,0.688-0.588,1.504-0.42,2.296c0.308,1.432,1.576,2.416,2.992,2.416
				c0.212,0,0.424-0.024,0.64-0.068C54.691,117.463,55.738,115.835,55.382,114.191z M52.59,115.735
				c-0.24,0.048-0.488,0.004-0.692-0.128c-0.2-0.132-0.344-0.34-0.396-0.576c-0.104-0.492,0.208-0.98,0.708-1.088
				c0.48-0.104,0.976,0.212,1.084,0.7c0.052,0.236,0.004,0.488-0.128,0.692C53.035,115.539,52.826,115.683,52.59,115.735z"/>
			<path d="M46.618,131.787c-0.684-0.444-1.504-0.588-2.3-0.42c-1.644,0.356-2.692,1.984-2.34,3.628
				c0.312,1.428,1.58,2.408,2.98,2.408c0.212,0,0.428-0.024,0.644-0.068c0.8-0.172,1.484-0.644,1.924-1.328
				c0.44-0.684,0.588-1.5,0.416-2.3C47.774,132.907,47.303,132.227,46.618,131.787z M45.154,135.247
				c-0.244,0.044-0.488,0-0.688-0.128c-0.2-0.132-0.348-0.34-0.4-0.576c-0.052-0.236-0.004-0.488,0.128-0.692s0.34-0.348,0.576-0.4
				c0.476-0.108,0.98,0.208,1.092,0.708C45.962,134.651,45.65,135.139,45.154,135.247z"/>
			<path d="M59.066,131.311c-0.356-1.648-1.996-2.692-3.624-2.34c-0.8,0.172-1.484,0.644-1.924,1.328
				c-0.44,0.688-0.588,1.504-0.42,2.292c0.168,0.8,0.644,1.484,1.328,1.928c0.5,0.324,1.068,0.488,1.652,0.488
				c0.216,0,0.432-0.02,0.652-0.068c1.64-0.356,2.692-1.98,2.34-3.62L59.066,131.311z M56.85,132.455
				c-0.132,0.204-0.34,0.348-0.576,0.4c-0.5,0.1-0.984-0.208-1.088-0.7l1.792-0.392l-1.792,0.384
				c-0.104-0.492,0.212-0.976,0.708-1.084c0.064-0.012,0.124-0.02,0.188-0.02c0.176,0,0.352,0.052,0.5,0.148
				c0.2,0.128,0.348,0.34,0.396,0.572C57.03,131.999,56.983,132.251,56.85,132.455z"/>
			<path d="M66.027,142.503c2.056-3.188,3.072-6.828,2.988-10.52l15.432-3.32c1.3-0.28,2.1-1.716,1.784-3.196
				c-0.168-0.772-0.616-1.448-1.24-1.844c-0.524-0.336-1.132-0.456-1.708-0.332l-15.092,3.248l-2.528-11.752l15.088-3.248
				c0.58-0.124,1.084-0.48,1.42-1.004c0.4-0.62,0.536-1.42,0.368-2.188c-0.148-0.68-0.508-1.284-1.024-1.692
				c-0.564-0.448-1.264-0.64-1.92-0.484l-15.092,3.248l-2.528-11.748l15.088-3.248c1.304-0.28,2.108-1.712,1.792-3.196
				c-0.316-1.48-1.636-2.448-2.944-2.176l-15.092,3.248L58.29,80.551l15.092-3.248c1.304-0.284,2.104-1.716,1.784-3.196
				s-1.648-2.456-2.944-2.176l-15.08,3.248l-2.528-11.752l15.088-3.248c1.304-0.28,2.108-1.712,1.792-3.196
				c-0.168-0.772-0.616-1.448-1.24-1.844c-0.52-0.336-1.128-0.46-1.708-0.332l-15.092,3.248l-0.156-0.724
				c-1.044-4.856-3.932-9.028-8.136-11.74c-4.2-2.712-9.188-3.62-14.048-2.584c-4.856,1.044-9.028,3.932-11.74,8.136
				c-2.712,4.204-3.632,9.188-2.584,14.048l0.156,0.72L1.855,69.159c-1.304,0.284-2.104,1.716-1.784,3.196
				c0.148,0.68,0.508,1.28,1.024,1.692c0.436,0.348,0.952,0.532,1.472,0.532c0.152,0,0.304-0.016,0.452-0.048l15.088-3.248
				l2.528,11.752L5.546,86.283c-1.304,0.28-2.108,1.712-1.792,3.196c0.28,1.308,1.348,2.224,2.496,2.224
				c0.152,0,0.3-0.016,0.452-0.048l15.088-3.248l2.528,11.748L9.23,103.403c-0.58,0.124-1.084,0.48-1.42,1.004
				c-0.4,0.62-0.536,1.42-0.368,2.192c0.28,1.308,1.348,2.224,2.496,2.224c0.152,0,0.3-0.016,0.452-0.048l15.088-3.248l2.528,11.748
				l-15.092,3.248c-1.304,0.284-2.104,1.716-1.788,3.192c0.148,0.68,0.508,1.284,1.024,1.692c0.436,0.348,0.952,0.532,1.472,0.532
				c0.152,0,0.3-0.016,0.448-0.048l15.088-3.248l2.528,11.752l-15.092,3.248c-1.304,0.284-2.104,1.716-1.784,3.196
				c0.168,0.772,0.616,1.448,1.24,1.844c0.388,0.248,0.82,0.38,1.252,0.38c0.152,0,0.304-0.016,0.456-0.048l15.428-3.32
				c1.444,3.4,3.868,6.3,7.052,8.36c1.924,1.24,4.024,2.06,6.188,2.536l15.192,70.588l0.592,1.92l0.888-0.2
				c1.168,0.904,2.824,1.396,4.664,1.396c0.748,0,1.528-0.084,2.316-0.252c2.736-0.588,4.928-2.088,5.904-3.928l1.052-0.224
				l-15.612-72.532C63.207,146.035,64.782,144.427,66.027,142.503z M83.699,125.175c0.096-0.02,0.188,0.024,0.252,0.068
				c0.192,0.124,0.34,0.36,0.4,0.632c0.096,0.452-0.084,0.86-0.308,0.908l-15.244,3.28c-0.068-0.536-0.068-1.072-0.184-1.604
				l-0.008-0.032L83.699,125.175z M2.614,72.655c-0.12,0.032-0.248-0.056-0.312-0.108c-0.168-0.132-0.292-0.348-0.344-0.592
				c-0.096-0.452,0.088-0.856,0.312-0.908l15.088-3.248l0.344,1.604L2.614,72.655z M80.01,108.055
				c0.128-0.012,0.248,0.056,0.316,0.108c0.164,0.132,0.288,0.348,0.34,0.592c0.06,0.272,0.02,0.548-0.104,0.74
				c-0.04,0.064-0.112,0.148-0.208,0.168l-15.092,3.248l-0.344-1.604L80.01,108.055z M76.322,90.935
				c0.216-0.004,0.552,0.212,0.656,0.696c0.096,0.452-0.084,0.86-0.312,0.908l-15.088,3.248l-0.344-1.604L76.322,90.935z
				 M72.639,73.815c0.24-0.012,0.552,0.212,0.656,0.7c0.096,0.452-0.088,0.856-0.312,0.908l-15.092,3.248l-0.344-1.604
				L72.639,73.815z M68.958,56.695c0.092-0.028,0.188,0.028,0.256,0.068c0.188,0.124,0.336,0.36,0.396,0.632
				c0.096,0.452-0.084,0.856-0.312,0.908l-15.092,3.248l-0.344-1.6L68.958,56.695z M6.298,89.775
				c-0.192,0.044-0.552-0.212-0.656-0.696c-0.104-0.492,0.112-0.864,0.312-0.908l15.088-3.248l0.344,1.604L6.298,89.775z
				 M9.986,106.891c-0.188,0.064-0.556-0.244-0.66-0.696c-0.06-0.272-0.02-0.548,0.104-0.74c0.04-0.064,0.112-0.148,0.208-0.168
				l15.092-3.248l0.344,1.604L9.986,106.891z M13.67,124.011c-0.128,0.012-0.248-0.056-0.316-0.108
				c-0.164-0.132-0.288-0.348-0.34-0.592c-0.096-0.452,0.088-0.856,0.312-0.908l15.088-3.248l0.344,1.604L13.67,124.011z
				 M17.35,141.131c-0.096,0.016-0.192-0.028-0.256-0.068c-0.188-0.124-0.336-0.36-0.4-0.632c-0.096-0.452,0.088-0.856,0.312-0.908
				l15.092-3.244l0.008,0.032c0.116,0.532,0.332,1.02,0.492,1.536L17.35,141.131z M72.566,217.975l-0.016,0.084
				c-0.084,0.488-1.172,1.648-3.304,2.104c-2.124,0.456-3.592-0.152-3.876-0.56l-0.04-0.048l-14.748-68.52
				c1.232-0.016,2.472-0.132,3.7-0.396c1.228-0.264,2.412-0.652,3.54-1.144L72.566,217.975z M53.45,146.759
				c-3.824,0.812-7.752,0.096-11.056-2.04c-3.312-2.14-5.588-5.42-6.412-9.244L20.674,64.359c-0.824-3.82-0.096-7.748,2.04-11.06
				c2.14-3.308,5.42-5.584,9.244-6.408c1.028-0.22,2.064-0.332,3.092-0.332c2.796,0,5.544,0.808,7.964,2.368
				c3.312,2.14,5.584,5.42,6.408,9.244l15.308,71.116c0.824,3.82,0.096,7.748-2.04,11.056
				C60.554,143.659,57.274,145.935,53.45,146.759z"/>
		</g>
	</g>
</g>
</svg>